# xmcd CD database file
#
# Track frame offsets:
#	150
#	26452
#	46386
#	69097
#	90622
#	111406
#	133269
#	151640
#	174543
#	201952
#	211301
#	221980
#	247256
#	271212
#	292577
#	313471
#
# Disc length: 4401 seconds
#
# Revision: 0
# Processed by: cddbd v1.5.2PL0 Copyright (c) Steve Scherf et al.
# Submitted via: CDex 1.51
#
DISCID=f0112f10
DTITLE=Collection Bien-être - Cycle de L´eau
DYEAR=2007
DGENRE=New Age
TTITLE0=Ruissellement
TTITLE1=Le lavoir de St-Jean
TTITLE2=Chute d´eau
TTITLE3=Rivière
TTITLE4=Rivière calme
TTITLE5=Petit ruisseau
TTITLE6=Torrent
TTITLE7=Cliquetis
TTITLE8=Sur la noche
TTITLE9=Au bord du phare
TTITLE10=Plage de galets
TTITLE11=Station balnéaire
TTITLE12=Le chant des mouettes
TTITLE13=La source
TTITLE14=Pluie fine
TTITLE15=Pluie de montagne
EXTD=YEAR: 2007
EXTT0=
EXTT1=
EXTT2=
EXTT3=
EXTT4=
EXTT5=
EXTT6=
EXTT7=
EXTT8=
EXTT9=
EXTT10=
EXTT11=
EXTT12=
EXTT13=
EXTT14=
EXTT15=
PLAYORDER=
